# xmcd
#
# Track frame offsets: 
#        150
#        14184
#        38772
#        54043
#        72667
#        93218
#        113469
#        132974
#        155640
#        168959
#
# Disc length: 2489 seconds
#
# Revision: 0
# Processed by: cddbd v1.5.1PL2 Copyright (c) Steve Scherf et al.
# Submitted via: ExactAudioCopy v0.95b3
#
DISCID=7c09b70a
DTITLE=Pyeng Threadgill - Of the Air
DYEAR=2005
DGENRE=Blues
TTITLE0=Wishing Well
TTITLE1=It's Late
TTITLE2=Before Day
TTITLE3=Inner Lining
TTITLE4=Caterpillar Crossing
TTITLE5=Close to Me
TTITLE6=Power Trip
TTITLE7=It's a Dream
TTITLE8=Ambrosia
TTITLE9=Jitterbug Waltz
EXTD=
EXTT0=
EXTT1=
EXTT2=
EXTT3=
EXTT4=
EXTT5=
EXTT6=
EXTT7=
EXTT8=
EXTT9=
PLAYORDER=
